<svg width="34" height="36" viewBox="0 0 34 36" fill="none" xmlns="http://www.w3.org/2000/svg">
<g clip-path="url(#clip0_19_489)">
<path d="M5 15.5557C5 12.9035 6.05357 10.36 7.92893 8.4846C9.8043 6.60923 12.3478 5.55566 15 5.55566C17.6522 5.55566 20.1957 6.60923 22.0711 8.4846C23.9464 10.36 25 12.9035 25 15.5557V21.4269L27.5 25.1769V30.5557H20.4862C20.2019 31.7978 19.5045 32.9067 18.5079 33.7009C17.5114 34.495 16.2749 34.9275 15.0006 34.9275C13.7264 34.9275 12.4898 34.495 11.4933 33.7009C10.4968 32.9067 9.79933 31.7978 9.515 30.5557H2.5V25.1769L5 21.4269V15.5557ZM12.135 30.5557C12.378 31.1135 12.7785 31.5882 13.2874 31.9217C13.7964 32.2551 14.3916 32.4327 15 32.4327C15.6084 32.4327 16.2036 32.2551 16.7126 31.9217C17.2215 31.5882 17.622 31.1135 17.865 30.5557H12.135ZM15 8.05566C13.0109 8.05566 11.1032 8.84584 9.6967 10.2524C8.29018 11.6589 7.5 13.5665 7.5 15.5557V22.1844L5 25.9344V28.0557H25V25.9344L22.5 22.1844V15.5557C22.5 13.5665 21.7098 11.6589 20.3033 10.2524C18.8968 8.84584 16.9891 8.05566 15 8.05566Z" fill="black" fill-opacity="0.59"/>
</g>
<path d="M30.293 6C31.9498 6 33.293 4.65685 33.293 3C33.293 1.34315 31.9498 0 30.293 0C28.6361 0 27.293 1.34315 27.293 3C27.293 4.65685 28.6361 6 30.293 6Z" fill="#B30A0A"/>
<defs>
<clipPath id="clip0_19_489">
<rect width="30" height="30" fill="white" transform="translate(0 5.55566)"/>
</clipPath>
</defs>
</svg>
