<svg width="112" height="111" viewBox="0 0 112 111" fill="none" xmlns="http://www.w3.org/2000/svg">
<path d="M40.6356 19.5118C47.5593 7.09574 51.0185 0.887695 56.1936 0.887695C61.3686 0.887695 64.8278 7.09574 71.7515 19.5118L73.5439 22.7252C75.5112 26.2554 76.4949 28.0206 78.025 29.1846C79.5551 30.3486 81.4677 30.7803 85.293 31.6438L88.7685 32.4307C102.212 35.4746 108.928 36.9938 110.529 42.1362C112.125 47.2732 107.545 52.6342 98.3809 63.3507L96.0092 66.1214C93.4081 69.1653 92.102 70.69 91.5173 72.5699C90.9326 74.4553 91.1293 76.4882 91.5227 80.5485L91.8834 84.2482C93.266 98.5497 93.96 105.698 89.774 108.873C85.5881 112.053 79.2928 109.151 66.7131 103.359L63.4507 101.861C59.8768 100.211 58.0898 99.3913 56.1936 99.3913C54.2973 99.3913 52.5104 100.211 48.9364 101.861L45.6795 103.359C33.0943 109.151 26.799 112.048 22.6185 108.878C18.4271 105.698 19.1211 98.5497 20.5037 84.2482L20.8644 80.554C21.2578 76.4882 21.4545 74.4553 20.8644 72.5754C20.2851 70.69 18.979 69.1653 16.3779 66.1269L14.0062 63.3507C4.8419 52.6396 0.262493 47.2787 1.85818 42.1362C3.45933 36.9938 10.1809 35.4691 23.624 32.4307L27.0996 31.6438C30.9194 30.7803 32.8266 30.3486 34.3621 29.1846C35.8922 28.0206 36.8759 26.2554 38.8432 22.7252L40.6356 19.5118Z" fill="#CDEFE9" stroke="#CDEFE9" stroke-width="1.63944"/>
</svg>
