<svg width="312" height="86" viewBox="0 0 312 86" fill="none" xmlns="http://www.w3.org/2000/svg">
<g filter="url(#filter0_d_19_471)">
<circle cx="43.5" cy="33.5" r="33.5" fill="#056050"/>
</g>
<path d="M47.5807 46.8999V39.6416C47.5807 39.2566 47.4228 38.8874 47.1417 38.6151C46.8607 38.3429 46.4795 38.1899 46.0821 38.1899H41.5864C41.189 38.1899 40.8078 38.3429 40.5268 38.6151C40.2458 38.8874 40.0879 39.2566 40.0879 39.6416V46.8999" stroke="white" stroke-width="1.0452" stroke-linecap="round" stroke-linejoin="round"/>
<path d="M33.3445 32.3834V41.0934C33.3445 43.8312 33.3445 45.1987 34.2226 46.0493C35.1008 46.9 36.5124 46.9 39.3387 46.9H48.33C51.1563 46.9 52.5679 46.9 53.4461 46.0493C54.3242 45.1987 54.3242 43.8312 54.3242 41.0934V32.3834M32.7765 22.9693C33.0493 21.9125 33.1856 21.3855 33.5918 21.0778C33.9994 20.77 34.5613 20.77 35.6852 20.77H51.9835C53.1074 20.77 53.6694 20.77 54.077 21.0778C54.4816 21.3855 54.6195 21.9125 54.8922 22.9693L56.6949 29.9576C56.8403 30.5209 56.9137 30.801 56.8973 31.0304C56.8767 31.3197 56.7673 31.5963 56.583 31.8248C56.3987 32.0533 56.148 32.223 55.8633 32.3122C55.6385 32.3834 55.3328 32.3834 54.7199 32.3834C53.9211 32.3834 53.521 32.3834 53.1868 32.3079C52.7235 32.2033 52.2925 31.9934 51.9296 31.6956C51.5666 31.3977 51.282 31.0204 51.0993 30.5949C50.966 30.2871 50.9015 29.9126 50.7742 29.1679C50.7382 28.9589 50.7202 28.8544 50.6992 28.8268C50.6853 28.8082 50.6671 28.793 50.646 28.7826C50.6249 28.7722 50.6015 28.7667 50.5779 28.7667C50.5542 28.7667 50.5308 28.7722 50.5097 28.7826C50.4886 28.793 50.4704 28.8082 50.4565 28.8268C50.4355 28.8544 50.4175 28.9574 50.3815 29.1679L50.2602 29.8778C50.1628 30.5612 49.8173 31.1888 49.2857 31.6479C48.754 32.107 48.071 32.3678 47.359 32.3834H47.0533C46.3412 32.3678 45.6582 32.107 45.1265 31.6479C44.5949 31.1888 44.2495 30.5612 44.1521 29.8778L44.0307 29.1665C43.9947 28.9589 43.9767 28.8544 43.9557 28.8268C43.9419 28.8082 43.9236 28.793 43.9025 28.7826C43.8814 28.7722 43.8581 28.7667 43.8344 28.7667C43.8107 28.7667 43.7873 28.7722 43.7662 28.7826C43.7451 28.793 43.7269 28.8082 43.713 28.8268C43.692 28.8544 43.674 28.9574 43.6381 29.1679L43.5167 29.8778C43.4193 30.5612 43.0738 31.1888 42.5422 31.6479C42.0106 32.107 41.3275 32.3678 40.6155 32.3834H40.3098C39.6242 32.3678 38.9649 32.125 38.4418 31.6954C37.9188 31.2659 37.5636 30.6755 37.4355 30.0229C37.4247 29.9749 37.4157 29.9265 37.4086 29.8778L37.2872 29.1665C37.2512 28.9589 37.2332 28.8544 37.2123 28.8268C37.1984 28.8082 37.1801 28.793 37.159 28.7826C37.1379 28.7722 37.1146 28.7667 37.0909 28.7667C37.0672 28.7667 37.0438 28.7722 37.0227 28.7826C37.0016 28.793 36.9834 28.8082 36.9695 28.8268C36.9485 28.8544 36.9305 28.9574 36.8946 29.1679C36.7672 29.9141 36.7028 30.2857 36.5694 30.5949C36.3869 31.0202 36.1025 31.3974 35.7398 31.6953C35.3771 31.9931 34.9464 32.2031 34.4834 32.3079C34.1477 32.3834 33.7491 32.3834 32.9489 32.3834C32.336 32.3834 32.0303 32.3834 31.8055 32.3122C31.5207 32.223 31.27 32.0533 31.0857 31.8248C30.9014 31.5963 30.792 31.3197 30.7715 31.0304C30.7565 30.801 30.8284 30.5209 30.9738 29.9576L32.7765 22.9693Z" stroke="white" stroke-width="1.0452"/>
<path d="M108.496 21.268V25.11H102.172V45H97.412V25.11H91.088V21.268H108.496ZM114.383 23.92C113.544 23.92 112.842 23.6593 112.275 23.138C111.731 22.594 111.459 21.9253 111.459 21.132C111.459 20.3387 111.731 19.6813 112.275 19.16C112.842 18.616 113.544 18.344 114.383 18.344C115.222 18.344 115.913 18.616 116.457 19.16C117.024 19.6813 117.307 20.3387 117.307 21.132C117.307 21.9253 117.024 22.594 116.457 23.138C115.913 23.6593 115.222 23.92 114.383 23.92ZM116.729 26.164V45H111.969V26.164H116.729ZM144.824 25.892C147.136 25.892 148.995 26.606 150.4 28.034C151.828 29.4393 152.542 31.4113 152.542 33.95V45H147.782V34.596C147.782 33.1227 147.408 32.0007 146.66 31.23C145.912 30.4367 144.892 30.04 143.6 30.04C142.308 30.04 141.277 30.4367 140.506 31.23C139.758 32.0007 139.384 33.1227 139.384 34.596V45H134.624V34.596C134.624 33.1227 134.25 32.0007 133.502 31.23C132.754 30.4367 131.734 30.04 130.442 30.04C129.127 30.04 128.085 30.4367 127.314 31.23C126.566 32.0007 126.192 33.1227 126.192 34.596V45H121.432V26.164H126.192V28.442C126.804 27.6487 127.586 27.0253 128.538 26.572C129.513 26.1187 130.578 25.892 131.734 25.892C133.207 25.892 134.522 26.2093 135.678 26.844C136.834 27.456 137.729 28.34 138.364 29.496C138.976 28.408 139.86 27.5353 141.016 26.878C142.195 26.2207 143.464 25.892 144.824 25.892ZM161.819 28.918C162.431 28.0113 163.27 27.2747 164.335 26.708C165.423 26.1413 166.658 25.858 168.041 25.858C169.65 25.858 171.101 26.2547 172.393 27.048C173.708 27.8413 174.739 28.9747 175.487 30.448C176.258 31.8987 176.643 33.5873 176.643 35.514C176.643 37.4407 176.258 39.152 175.487 40.648C174.739 42.1213 173.708 43.266 172.393 44.082C171.101 44.898 169.65 45.306 168.041 45.306C166.636 45.306 165.4 45.034 164.335 44.49C163.292 43.9233 162.454 43.198 161.819 42.314V45H157.059V19.84H161.819V28.918ZM171.781 35.514C171.781 34.3807 171.543 33.406 171.067 32.59C170.614 31.7513 170.002 31.1167 169.231 30.686C168.483 30.2553 167.667 30.04 166.783 30.04C165.922 30.04 165.106 30.2667 164.335 30.72C163.587 31.1507 162.975 31.7853 162.499 32.624C162.046 33.4627 161.819 34.4487 161.819 35.582C161.819 36.7153 162.046 37.7013 162.499 38.54C162.975 39.3787 163.587 40.0247 164.335 40.478C165.106 40.9087 165.922 41.124 166.783 41.124C167.667 41.124 168.483 40.8973 169.231 40.444C170.002 39.9907 170.614 39.3447 171.067 38.506C171.543 37.6673 171.781 36.67 171.781 35.514ZM197.884 26.164V45H193.09V42.62C192.478 43.436 191.673 44.082 190.676 44.558C189.701 45.0113 188.636 45.238 187.48 45.238C186.007 45.238 184.703 44.932 183.57 44.32C182.437 43.6853 181.541 42.7673 180.884 41.566C180.249 40.342 179.932 38.8913 179.932 37.214V26.164H184.692V36.534C184.692 38.03 185.066 39.186 185.814 40.002C186.562 40.7953 187.582 41.192 188.874 41.192C190.189 41.192 191.22 40.7953 191.968 40.002C192.716 39.186 193.09 38.03 193.09 36.534V26.164H197.884ZM209.526 33.1C209.526 30.7653 210.047 28.68 211.09 26.844C212.155 24.9853 213.595 23.546 215.408 22.526C217.244 21.4833 219.295 20.962 221.562 20.962C224.214 20.962 226.537 21.642 228.532 23.002C230.527 24.362 231.921 26.2433 232.714 28.646H227.24C226.696 27.5127 225.925 26.6627 224.928 26.096C223.953 25.5293 222.82 25.246 221.528 25.246C220.145 25.246 218.91 25.5747 217.822 26.232C216.757 26.8667 215.918 27.7733 215.306 28.952C214.717 30.1307 214.422 31.5133 214.422 33.1C214.422 34.664 214.717 36.0467 215.306 37.248C215.918 38.4267 216.757 39.3447 217.822 40.002C218.91 40.6367 220.145 40.954 221.528 40.954C222.82 40.954 223.953 40.6707 224.928 40.104C225.925 39.5147 226.696 38.6533 227.24 37.52H232.714C231.921 39.9453 230.527 41.838 228.532 43.198C226.56 44.5353 224.237 45.204 221.562 45.204C219.295 45.204 217.244 44.694 215.408 43.674C213.595 42.6313 212.155 41.192 211.09 39.356C210.047 37.52 209.526 35.4347 209.526 33.1ZM241.54 19.84V45H236.78V19.84H241.54ZM254.606 45.306C252.793 45.306 251.161 44.9093 249.71 44.116C248.26 43.3 247.115 42.1553 246.276 40.682C245.46 39.2087 245.052 37.5087 245.052 35.582C245.052 33.6553 245.472 31.9553 246.31 30.482C247.172 29.0087 248.339 27.8753 249.812 27.082C251.286 26.266 252.929 25.858 254.742 25.858C256.556 25.858 258.199 26.266 259.672 27.082C261.146 27.8753 262.302 29.0087 263.14 30.482C264.002 31.9553 264.432 33.6553 264.432 35.582C264.432 37.5087 263.99 39.2087 263.106 40.682C262.245 42.1553 261.066 43.3 259.57 44.116C258.097 44.9093 256.442 45.306 254.606 45.306ZM254.606 41.158C255.468 41.158 256.272 40.954 257.02 40.546C257.791 40.1153 258.403 39.4807 258.856 38.642C259.31 37.8033 259.536 36.7833 259.536 35.582C259.536 33.7913 259.06 32.42 258.108 31.468C257.179 30.4933 256.034 30.006 254.674 30.006C253.314 30.006 252.17 30.4933 251.24 31.468C250.334 32.42 249.88 33.7913 249.88 35.582C249.88 37.3727 250.322 38.7553 251.206 39.73C252.113 40.682 253.246 41.158 254.606 41.158ZM285.706 26.164V45H280.912V42.62C280.3 43.436 279.495 44.082 278.498 44.558C277.523 45.0113 276.458 45.238 275.302 45.238C273.829 45.238 272.525 44.932 271.392 44.32C270.259 43.6853 269.363 42.7673 268.706 41.566C268.071 40.342 267.754 38.8913 267.754 37.214V26.164H272.514V36.534C272.514 38.03 272.888 39.186 273.636 40.002C274.384 40.7953 275.404 41.192 276.696 41.192C278.011 41.192 279.042 40.7953 279.79 40.002C280.538 39.186 280.912 38.03 280.912 36.534V26.164H285.706ZM289.179 35.514C289.179 33.61 289.553 31.9213 290.301 30.448C291.071 28.9747 292.114 27.8413 293.429 27.048C294.743 26.2547 296.205 25.858 297.815 25.858C299.039 25.858 300.206 26.13 301.317 26.674C302.427 27.1953 303.311 27.898 303.969 28.782V19.84H308.797V45H303.969V42.212C303.379 43.1413 302.552 43.8893 301.487 44.456C300.421 45.0227 299.186 45.306 297.781 45.306C296.194 45.306 294.743 44.898 293.429 44.082C292.114 43.266 291.071 42.1213 290.301 40.648C289.553 39.152 289.179 37.4407 289.179 35.514ZM304.003 35.582C304.003 34.426 303.776 33.44 303.323 32.624C302.869 31.7853 302.257 31.1507 301.487 30.72C300.716 30.2667 299.889 30.04 299.005 30.04C298.121 30.04 297.305 30.2553 296.557 30.686C295.809 31.1167 295.197 31.7513 294.721 32.59C294.267 33.406 294.041 34.3807 294.041 35.514C294.041 36.6473 294.267 37.6447 294.721 38.506C295.197 39.3447 295.809 39.9907 296.557 40.444C297.327 40.8973 298.143 41.124 299.005 41.124C299.889 41.124 300.716 40.9087 301.487 40.478C302.257 40.0247 302.869 39.39 303.323 38.574C303.776 37.7353 304.003 36.738 304.003 35.582Z" fill="#056050"/>
<defs>
<filter id="filter0_d_19_471" x="0.62" y="0" width="85.76" height="85.76" filterUnits="userSpaceOnUse" color-interpolation-filters="sRGB">
<feFlood flood-opacity="0" result="BackgroundImageFix"/>
<feColorMatrix in="SourceAlpha" type="matrix" values="0 0 0 0 0 0 0 0 0 0 0 0 0 0 0 0 0 0 127 0" result="hardAlpha"/>
<feOffset dy="9.38"/>
<feGaussianBlur stdDeviation="4.69"/>
<feComposite in2="hardAlpha" operator="out"/>
<feColorMatrix type="matrix" values="0 0 0 0 0 0 0 0 0 0 0 0 0 0 0 0 0 0 0.25 0"/>
<feBlend mode="normal" in2="BackgroundImageFix" result="effect1_dropShadow_19_471"/>
<feBlend mode="normal" in="SourceGraphic" in2="effect1_dropShadow_19_471" result="shape"/>
</filter>
</defs>
</svg>
