<svg width="28" height="26" viewBox="0 0 28 26" fill="none" xmlns="http://www.w3.org/2000/svg">
<path d="M25.5553 0.851619C25.2198 0.876026 24.8905 0.954729 24.5803 1.08466H24.5761C24.2783 1.20274 22.8623 1.7984 20.7096 2.70128L12.9953 5.95021C7.45994 8.28057 2.01858 10.5754 2.01858 10.5754L2.08337 10.5503C2.08337 10.5503 1.70822 10.6736 1.31634 10.9422C1.07424 11.0963 0.865913 11.2978 0.703965 11.5347C0.511683 11.8169 0.357022 12.2485 0.414498 12.6947C0.508548 13.4492 0.997611 13.9017 1.34873 14.1514C1.70404 14.4043 2.04262 14.5224 2.04262 14.5224H2.05098L7.15375 16.2414C7.38261 16.9761 8.70872 21.3358 9.02745 22.3401C9.21555 22.9399 9.39842 23.3151 9.62728 23.6014C9.73805 23.7477 9.86763 23.87 10.0233 23.9682C10.1043 24.0153 10.1906 24.0525 10.2804 24.079L10.2282 24.0665C10.2438 24.0706 10.2564 24.0832 10.2679 24.0874C10.3097 24.0989 10.3379 24.103 10.3912 24.1114C11.199 24.3559 11.8479 23.8543 11.8479 23.8543L11.8845 23.8251L14.8973 21.0819L19.9467 24.9558L20.0617 25.0049C21.114 25.4668 22.1799 25.2097 22.7432 24.7562C23.3106 24.2995 23.5311 23.7153 23.5311 23.7153L23.5677 23.6213L27.4697 3.63134C27.5805 3.13809 27.6087 2.6762 27.4865 2.22789C27.3603 1.77418 27.0693 1.38395 26.6703 1.13377C26.3353 0.930115 25.9468 0.831815 25.5553 0.851619ZM25.4497 2.99388C25.4456 3.05972 25.4581 3.0524 25.4288 3.17885V3.19035L21.5634 22.9723C21.5466 23.0005 21.5184 23.0622 21.4411 23.1239C21.3596 23.1886 21.2948 23.2294 20.9552 23.0946L14.7792 18.3597L11.0485 21.7601L11.8322 16.7545L21.9228 7.34947C22.3387 6.96282 22.1998 6.88131 22.1998 6.88131C22.229 6.40688 21.5717 6.74232 21.5717 6.74232L8.8477 14.6248L8.84353 14.6039L2.74486 12.5505V12.5463L2.72919 12.5432C2.73988 12.5396 2.75035 12.5354 2.76054 12.5306L2.79398 12.5139L2.82637 12.5024C2.82637 12.5024 8.27191 10.2076 13.8073 7.8772C16.5787 6.70993 19.3709 5.5343 21.5184 4.62723C22.792 4.09115 24.0669 3.55819 25.3431 3.02837C25.4288 2.99493 25.3881 2.99388 25.4497 2.99388Z" fill="#056050"/>
</svg>
