<svg width="112" height="111" viewBox="0 0 112 111" fill="none" xmlns="http://www.w3.org/2000/svg">
<path d="M40.6351 19.5118C47.5589 7.09574 51.018 0.887695 56.1931 0.887695C61.3681 0.887695 64.8273 7.09574 71.751 19.5118L73.5434 22.7252C75.5107 26.2554 76.4944 28.0206 78.0245 29.1846C79.5546 30.3486 81.4672 30.7803 85.2925 31.6438L88.7681 32.4307C102.211 35.4746 108.927 36.9938 110.528 42.1362C112.124 47.2732 107.545 52.6342 98.3804 63.3507L96.0088 66.1214C93.4076 69.1653 92.1015 70.69 91.5168 72.5699C90.9321 74.4553 91.1288 76.4882 91.5223 80.5485L91.8829 84.2482C93.2655 98.5497 93.9595 105.698 89.7736 108.873C85.5876 112.053 79.2923 109.151 66.7126 103.359L63.4502 101.861C59.8763 100.211 58.0893 99.3913 56.1931 99.3913C54.2968 99.3913 52.5099 100.211 48.936 101.861L45.679 103.359C33.0938 109.151 26.7985 112.048 22.618 108.878C18.4266 105.698 19.1206 98.5497 20.5032 84.2482L20.8639 80.554C21.2573 76.4882 21.4541 74.4553 20.8639 72.5754C20.2846 70.69 18.9786 69.1653 16.3774 66.1269L14.0057 63.3507C4.84141 52.6396 0.262005 47.2787 1.85769 42.1362C3.45885 36.9938 10.1804 35.4691 23.6235 32.4307L27.0991 31.6438C30.9189 30.7803 32.8261 30.3486 34.3616 29.1846C35.8918 28.0206 36.8754 26.2554 38.8427 22.7252L40.6351 19.5118Z" fill="#CDEFE9" stroke="#CDEFE9" stroke-width="1.63944"/>
</svg>
