<svg width="19" height="17" viewBox="0 0 19 17" fill="none" xmlns="http://www.w3.org/2000/svg">
<path d="M18.8347 5.42231C18.8347 11.1873 10.2869 15.8537 9.92285 16.0464C9.82691 16.098 9.71967 16.125 9.61072 16.125C9.50178 16.125 9.39453 16.098 9.29859 16.0464C8.93457 15.8537 0.386719 11.1873 0.386719 5.42231C0.388245 4.06854 0.926702 2.77066 1.88396 1.8134C2.84122 0.856145 4.1391 0.317688 5.49286 0.316162C7.19354 0.316162 8.68256 1.04749 9.61072 2.28367C10.5389 1.04749 12.0279 0.316162 13.7286 0.316162C15.0823 0.317688 16.3802 0.856145 17.3375 1.8134C18.2947 2.77066 18.8332 4.06854 18.8347 5.42231Z" fill="#DE4673"/>
</svg>
